<mxfile host="app.diagrams.net" modified="2021-08-30T05:55:16.734Z" agent="5.0 (Windows NT 10.0; Win64; x64) AppleWebKit/537.36 (KHTML, like Gecko) Chrome/92.0.4515.159 Safari/537.36" etag="BZwr5Gd9azZJqkpcfXRK" version="14.9.9" type="github">
  <diagram id="C5RBs43oDa-KdzZeNtuy" name="Page-1">
    <mxGraphModel dx="1422" dy="762" grid="1" gridSize="10" guides="1" tooltips="1" connect="1" arrows="1" fold="1" page="1" pageScale="1" pageWidth="827" pageHeight="1169" math="0" shadow="0">
      <root>
        <mxCell id="WIyWlLk6GJQsqaUBKTNV-0" />
        <mxCell id="WIyWlLk6GJQsqaUBKTNV-1" parent="WIyWlLk6GJQsqaUBKTNV-0" />
        <mxCell id="uJ_VvFylZdmz2W0lECod-0" value="User" style="swimlane;fontStyle=0;childLayout=stackLayout;horizontal=1;startSize=26;horizontalStack=0;resizeParent=1;resizeParentMax=0;resizeLast=0;collapsible=1;marginBottom=0;" parent="WIyWlLk6GJQsqaUBKTNV-1" vertex="1">
          <mxGeometry x="50" y="40" width="140" height="200" as="geometry" />
        </mxCell>
        <mxCell id="uJ_VvFylZdmz2W0lECod-1" value="Long Id&#xa;String username&#xa;String email&#xa;String password&#xa;String mobile&#xa;Int age&#xa;int height&#xa;Double BMI&#xa;Double inbody&#xa;String goal&#xa;" style="text;strokeColor=none;fillColor=none;align=left;verticalAlign=top;spacingLeft=4;spacingRight=4;overflow=hidden;rotatable=0;points=[[0,0.5],[1,0.5]];portConstraint=eastwest;" parent="uJ_VvFylZdmz2W0lECod-0" vertex="1">
          <mxGeometry y="26" width="140" height="174" as="geometry" />
        </mxCell>
        <mxCell id="zBOxORjECkpZ9On6MnPA-0" value="Plan" style="swimlane;fontStyle=0;childLayout=stackLayout;horizontal=1;startSize=26;fillColor=none;horizontalStack=0;resizeParent=1;resizeParentMax=0;resizeLast=0;collapsible=1;marginBottom=0;" vertex="1" parent="WIyWlLk6GJQsqaUBKTNV-1">
          <mxGeometry x="70" y="290" width="140" height="200" as="geometry" />
        </mxCell>
        <mxCell id="zBOxORjECkpZ9On6MnPA-1" value="Long id&#xa;Int planNo&#xa;String planName&#xa;Int day&#xa;String exName&#xa;Int setNum&#xa;Int setPerNum&#xa;&#xa;" style="text;strokeColor=none;fillColor=none;align=left;verticalAlign=top;spacingLeft=4;spacingRight=4;overflow=hidden;rotatable=0;points=[[0,0.5],[1,0.5]];portConstraint=eastwest;" vertex="1" parent="zBOxORjECkpZ9On6MnPA-0">
          <mxGeometry y="26" width="140" height="174" as="geometry" />
        </mxCell>
        <mxCell id="zBOxORjECkpZ9On6MnPA-4" value="MakePlan" style="swimlane;fontStyle=0;childLayout=stackLayout;horizontal=1;startSize=26;horizontalStack=0;resizeParent=1;resizeParentMax=0;resizeLast=0;collapsible=1;marginBottom=0;" vertex="1" parent="WIyWlLk6GJQsqaUBKTNV-1">
          <mxGeometry x="220" y="40" width="120" height="210" as="geometry" />
        </mxCell>
        <mxCell id="zBOxORjECkpZ9On6MnPA-5" value="Long id&#xa;(FK)User Id" style="text;strokeColor=none;fillColor=none;align=left;verticalAlign=top;spacingLeft=4;spacingRight=4;overflow=hidden;rotatable=0;points=[[0,0.5],[1,0.5]];portConstraint=eastwest;" vertex="1" parent="zBOxORjECkpZ9On6MnPA-4">
          <mxGeometry y="26" width="120" height="184" as="geometry" />
        </mxCell>
        <mxCell id="zBOxORjECkpZ9On6MnPA-13" value="Sns" style="swimlane;fontStyle=0;childLayout=stackLayout;horizontal=1;startSize=26;horizontalStack=0;resizeParent=1;resizeParentMax=0;resizeLast=0;collapsible=1;marginBottom=0;" vertex="1" parent="WIyWlLk6GJQsqaUBKTNV-1">
          <mxGeometry x="510" y="85" width="140" height="220" as="geometry" />
        </mxCell>
        <mxCell id="zBOxORjECkpZ9On6MnPA-14" value="Long id&#xa;(FK) usernumber&#xa;Int snsNo&#xa;int following&#xa;int followers&#xa;int goods&#xa;String message&#xa;" style="text;strokeColor=none;fillColor=none;align=left;verticalAlign=top;spacingLeft=4;spacingRight=4;overflow=hidden;rotatable=0;points=[[0,0.5],[1,0.5]];portConstraint=eastwest;" vertex="1" parent="zBOxORjECkpZ9On6MnPA-13">
          <mxGeometry y="26" width="140" height="194" as="geometry" />
        </mxCell>
      </root>
    </mxGraphModel>
  </diagram>
</mxfile>
